<svg width="1920" height="1105" viewBox="0 0 1920 1105" fill="none" xmlns="http://www.w3.org/2000/svg">
<path d="M1519.37 -201C1562.66 42.4002 1315.79 561.248 929.142 606.561C617.504 643.071 -103.16 495.003 -191.891 1107.56" stroke="white" stroke-opacity="0.3" stroke-width="1.82861" stroke-miterlimit="10" stroke-linecap="round"/>
<path opacity="0.94" d="M1562.61 -182.704C1591.26 67.6125 1323.1 592.12 913.927 616.379C596.597 635.202 -105.066 481.981 -210.59 1077.48" stroke="white" stroke-opacity="0.3" stroke-width="1.77984" stroke-miterlimit="10" stroke-linecap="round"/>
<path opacity="0.88" d="M1605.85 -164.389C1619.85 92.8448 1331 623.68 898.693 626.216C576.082 628.122 -106.99 468.979 -229.33 1047.42" stroke="white" stroke-opacity="0.3" stroke-width="1.71889" stroke-miterlimit="10" stroke-linecap="round"/>
<path opacity="0.82" d="M1649.09 -146.093C1648.46 118.077 1339.31 655.931 883.478 636.053C555.868 621.754 -108.874 455.978 -248.029 1017.36" stroke="white" stroke-opacity="0.3" stroke-width="1.67013" stroke-miterlimit="10" stroke-linecap="round"/>
<path opacity="0.76" d="M1692.33 -127.797C1677.05 143.29 1347.84 688.932 868.264 645.87C535.763 616.013 -110.778 442.956 -266.728 987.28" stroke="white" stroke-opacity="0.3" stroke-width="1.60917" stroke-miterlimit="10" stroke-linecap="round"/>
<path opacity="0.71" d="M1735.57 -109.482C1705.66 168.522 1356.45 722.643 853.028 655.708C515.701 610.861 -112.704 429.954 -285.447 957.199" stroke="white" stroke-opacity="0.3" stroke-width="1.56041" stroke-miterlimit="10" stroke-linecap="round"/>
<path opacity="0.65" d="M1778.81 -91.186C1734.25 193.734 1365.02 757.003 837.814 665.525C495.617 606.156 -114.61 416.932 -304.168 927.119" stroke="white" stroke-opacity="0.3" stroke-width="1.51165" stroke-miterlimit="10" stroke-linecap="round"/>
<path opacity="0.59" d="M1822.05 -72.8904C1762.86 218.946 1373.49 791.992 822.601 675.362C475.47 601.876 -116.513 403.931 -322.865 897.059" stroke="white" stroke-opacity="0.3" stroke-width="1.45069" stroke-miterlimit="10" stroke-linecap="round"/>
<path opacity="0.53" d="M1865.29 -54.5947C1791.45 244.159 1381.78 827.528 807.365 685.18C455.171 597.9 -118.417 390.909 -341.585 866.979" stroke="white" stroke-opacity="0.3" stroke-width="1.40193" stroke-miterlimit="10" stroke-linecap="round"/>
<path opacity="0.47" d="M1908.53 -36.2791C1820.06 269.411 1389.83 863.592 792.151 695.017C434.783 594.229 -120.323 377.907 -360.284 836.919" stroke="white" stroke-opacity="0.3" stroke-width="1.34098" stroke-miterlimit="10" stroke-linecap="round"/>
<path opacity="0.41" d="M1951.77 -17.9834C1848.65 294.624 1397.64 900.082 776.916 704.854C414.225 590.781 -122.247 364.885 -379.024 806.859" stroke="white" stroke-opacity="0.3" stroke-width="1.29222" stroke-miterlimit="10" stroke-linecap="round"/>
<path opacity="0.35" d="M1995.01 0.312256C1877.26 319.836 1405.19 936.957 761.701 714.672C393.535 587.495 -124.153 351.863 -397.724 776.779" stroke="white" stroke-opacity="0.3" stroke-width="1.23126" stroke-miterlimit="10" stroke-linecap="round"/>
<path opacity="0.29" d="M2038.25 18.6279C1905.85 345.068 1412.44 974.217 746.487 724.509C372.716 584.371 -126.057 338.861 -416.422 746.719" stroke="white" stroke-opacity="0.3" stroke-width="1.1825" stroke-miterlimit="10" stroke-linecap="round"/>
<path opacity="0.24" d="M2081.49 36.9236C1934.46 370.281 1419.45 1011.74 731.251 734.346C351.723 581.369 -127.962 325.86 -435.164 716.659" stroke="white" stroke-opacity="0.3" stroke-width="1.13374" stroke-miterlimit="10" stroke-linecap="round"/>
<path opacity="0.18" d="M2124.73 55.2192C1963.04 395.493 1426.18 1049.53 716.037 744.164C330.622 578.428 -129.867 312.838 -453.862 686.579" stroke="white" stroke-opacity="0.3" stroke-width="1.07278" stroke-miterlimit="10" stroke-linecap="round"/>
<path opacity="0.12" d="M2167.97 73.5354C1991.66 420.746 1432.66 1087.56 700.803 754.001C309.372 575.589 -131.791 299.837 -472.581 656.499" stroke="white" stroke-opacity="0.3" stroke-width="1.02402" stroke-miterlimit="10" stroke-linecap="round"/>
<path opacity="0.06" d="M2211.21 91.8306C2020.24 445.958 1438.89 1125.77 685.588 763.838C287.989 572.789 -133.697 286.835 -491.302 626.439" stroke="white" stroke-opacity="0.3" stroke-width="0.963066" stroke-miterlimit="10" stroke-linecap="round"/>
</svg>
