<svg width="32" height="33" viewBox="0 0 32 33" xmlns="http://www.w3.org/2000/svg">
<path fill-rule="evenodd" clip-rule="evenodd" d="M16.4714 6.02862C16.2111 5.76827 15.7889 5.76827 15.5286 6.02862C15.2682 6.28897 15.2682 6.71108 15.5286 6.97143C15.7889 7.23177 16.2111 7.23177 16.4714 6.97143C16.7318 6.71108 16.7318 6.28897 16.4714 6.02862ZM13.643 4.143C14.9447 2.84125 17.0553 2.84125 18.357 4.143C18.9632 4.74916 19.2871 5.5307 19.3287 6.32429L24.2743 8.17888C24.286 8.16685 24.2978 8.15489 24.3096 8.143C25.6114 6.84125 27.7219 6.84125 29.0237 8.143C30.3254 9.44475 30.3254 11.5553 29.0237 12.857C27.7219 14.1588 25.6114 14.1588 24.3096 12.857C23.7035 12.2509 23.3796 11.4693 23.3379 10.6758L18.3924 8.82116C18.3807 8.83319 18.3689 8.84515 18.357 8.85704C17.2726 9.94142 15.627 10.1225 14.3552 9.40027L8.57778 13.7334C8.83343 14.8199 8.53762 16.0098 7.69036 16.857C6.38861 18.1588 4.27806 18.1588 2.97631 16.857C1.67456 15.5553 1.67456 13.4447 2.97631 12.143C4.06068 11.0586 5.7063 10.8775 6.97811 11.5998L12.7556 7.26669C12.4999 6.18017 12.7957 4.99027 13.643 4.143ZM27.1381 10.0286C26.8777 9.76827 26.4556 9.76827 26.1953 10.0286C25.9349 10.289 25.9349 10.7111 26.1953 10.9714C26.4556 11.2318 26.8777 11.2318 27.1381 10.9714C27.3984 10.7111 27.3984 10.289 27.1381 10.0286ZM5.80474 14.0286C5.54439 13.7683 5.12228 13.7683 4.86193 14.0286C4.60158 14.289 4.60158 14.7111 4.86193 14.9714C5.12228 15.2318 5.54439 15.2318 5.80474 14.9714C6.06509 14.7111 6.06509 14.289 5.80474 14.0286ZM16 12.5C16.7364 12.5 17.3333 13.097 17.3333 13.8334V27.1667C17.3333 27.9031 16.7364 28.5 16 28.5C15.2636 28.5 14.6667 27.9031 14.6667 27.1667V13.8334C14.6667 13.097 15.2636 12.5 16 12.5ZM26.6667 16.5C27.403 16.5 28 17.097 28 17.8334V27.1667C28 27.9031 27.403 28.5 26.6667 28.5C25.9303 28.5 25.3333 27.9031 25.3333 27.1667V17.8334C25.3333 17.097 25.9303 16.5 26.6667 16.5ZM5.33333 20.5C6.06971 20.5 6.66667 21.097 6.66667 21.8334V27.1667C6.66667 27.9031 6.06971 28.5 5.33333 28.5C4.59695 28.5 4 27.9031 4 27.1667L4 21.8334C4 21.097 4.59695 20.5 5.33333 20.5Z" />
</svg>
