<svg width="33" height="33" viewBox="0 0 33 33" xmlns="http://www.w3.org/2000/svg">
<path fill-rule="evenodd" clip-rule="evenodd" d="M12.3327 3.16665C12.3327 2.43027 12.9296 1.83331 13.666 1.83331H18.9993C19.7357 1.83331 20.3327 2.43027 20.3327 3.16665C20.3327 3.90303 19.7357 4.49998 18.9993 4.49998H17.666V5.90265C24.0349 6.56891 28.9993 11.9547 28.9993 18.5C28.9993 25.4956 23.3283 31.1666 16.3327 31.1666C9.33708 31.1666 3.66602 25.4956 3.66602 18.5C3.66602 11.9547 8.63046 6.56891 14.9993 5.90265V4.49998H13.666C12.9296 4.49998 12.3327 3.90303 12.3327 3.16665ZM8.17019 5.01323C8.69088 5.53392 8.69088 6.37814 8.17019 6.89884L7.17019 7.89884C7.17004 7.89899 7.17033 7.8987 7.17019 7.89884L6.17019 8.89884C5.64949 9.41954 4.80527 9.41954 4.28457 8.89884C3.76387 8.37814 3.76387 7.53392 4.28457 7.01323L5.28443 6.01336C5.28438 6.01341 5.28448 6.01332 5.28443 6.01336L6.28457 5.01323C6.80527 4.49253 7.64949 4.49253 8.17019 5.01323ZM24.4952 5.01323C25.0159 4.49253 25.8601 4.49253 26.3808 5.01323L28.3808 7.01323C28.9015 7.53392 28.9015 8.37814 28.3808 8.89884C27.8601 9.41954 27.0159 9.41954 26.4952 8.89884L24.4952 6.89884C23.9745 6.37814 23.9745 5.53392 24.4952 5.01323ZM16.3327 8.49998C10.8098 8.49998 6.33268 12.9771 6.33268 18.5C6.33268 24.0228 10.8098 28.5 16.3327 28.5C21.8555 28.5 26.3327 24.0228 26.3327 18.5C26.3327 12.9771 21.8555 8.49998 16.3327 8.49998ZM16.3327 11.8333C17.0691 11.8333 17.666 12.4303 17.666 13.1666V17.7451L20.352 19.3567C20.9834 19.7355 21.1882 20.5545 20.8093 21.186C20.4305 21.8174 19.6115 22.0222 18.98 21.6433L15.6467 19.6433C15.2451 19.4023 14.9993 18.9683 14.9993 18.5V13.1666C14.9993 12.4303 15.5963 11.8333 16.3327 11.8333Z" />
</svg>
