<svg width="33" height="33" viewBox="0 0 33 33" xmlns="http://www.w3.org/2000/svg">
<path fill-rule="evenodd" clip-rule="evenodd" d="M4.03518 1.83332C4.0456 1.83333 4.05589 1.83333 4.06603 1.83333H7.26603C7.27617 1.83333 7.28646 1.83333 7.29688 1.83332C7.45571 1.83326 7.64538 1.83319 7.81247 1.84684C8.0061 1.86266 8.28342 1.90325 8.57401 2.05132C8.95034 2.24306 9.2563 2.54902 9.44804 2.92535C9.59611 3.21594 9.6367 3.49327 9.65252 3.68689C9.66617 3.85398 9.6661 4.04366 9.66604 4.20248C9.66604 4.2129 9.66603 4.22319 9.66603 4.23333V7.43333C9.66603 7.44347 9.66604 7.45376 9.66604 7.46418C9.6661 7.623 9.66617 7.81268 9.65252 7.97977C9.6367 8.17339 9.59611 8.45072 9.44804 8.74131C9.2563 9.11763 8.95034 9.4236 8.57401 9.61534C8.28342 9.76341 8.0061 9.804 7.81247 9.81982C7.64538 9.83347 7.45571 9.8334 7.29688 9.83334C7.28646 9.83333 7.27617 9.83333 7.26603 9.83333H4.06603C4.05589 9.83333 4.0456 9.83333 4.03518 9.83334C3.87636 9.8334 3.68668 9.83347 3.51959 9.81982C3.32597 9.804 3.04865 9.76341 2.75805 9.61534C2.38173 9.4236 2.07577 9.11763 1.88402 8.74131C1.73595 8.45072 1.69536 8.17339 1.67954 7.97977C1.66589 7.81268 1.66596 7.623 1.66602 7.46418C1.66603 7.45376 1.66603 7.44347 1.66603 7.43333V4.23333C1.66603 4.22319 1.66603 4.2129 1.66602 4.20248C1.66596 4.04366 1.66589 3.85398 1.67954 3.68689C1.69536 3.49327 1.73595 3.21594 1.88402 2.92535C2.07577 2.54902 2.38173 2.24306 2.75805 2.05132C3.04865 1.90325 3.32597 1.86266 3.51959 1.84684C3.68668 1.83319 3.87636 1.83326 4.03518 1.83332ZM4.3327 4.5V7.16666H6.99936V4.5H4.3327ZM14.7018 7.16665C14.7123 7.16666 14.7226 7.16666 14.7327 7.16666H17.9327C17.9428 7.16666 17.9531 7.16666 17.9636 7.16665C18.1224 7.16659 18.312 7.16652 18.4791 7.18017C18.6728 7.19599 18.9501 7.23658 19.2407 7.38465C19.617 7.5764 19.923 7.88236 20.1147 8.25868C20.2628 8.54928 20.3034 8.8266 20.3192 9.02022C20.3328 9.18732 20.3328 9.377 20.3327 9.53582C20.3327 9.54624 20.3327 9.55653 20.3327 9.56666V12.7667C20.3327 12.7768 20.3327 12.7871 20.3327 12.7975C20.3328 12.9563 20.3328 13.146 20.3192 13.3131C20.3034 13.5067 20.2628 13.784 20.1147 14.0746C19.923 14.451 19.617 14.7569 19.2407 14.9487C18.9501 15.0967 18.6728 15.1373 18.4791 15.1532C18.312 15.1668 18.1224 15.1667 17.9635 15.1667C17.9531 15.1667 17.9428 15.1667 17.9327 15.1667H14.7327C14.7226 15.1667 14.7123 15.1667 14.7019 15.1667C14.543 15.1667 14.3534 15.1668 14.1863 15.1532C13.9926 15.1373 13.7153 15.0967 13.4247 14.9487C13.0484 14.7569 12.7424 14.451 12.5507 14.0746C12.4026 13.784 12.362 13.5067 12.3462 13.3131C12.3326 13.146 12.3326 12.9563 12.3327 12.7975C12.3327 12.7871 12.3327 12.7768 12.3327 12.7667V9.56666C12.3327 9.55652 12.3327 9.54623 12.3327 9.53581C12.3326 9.37699 12.3326 9.18731 12.3462 9.02022C12.362 8.8266 12.4026 8.54928 12.5507 8.25868C12.7424 7.88236 13.0484 7.5764 13.4247 7.38465C13.7153 7.23658 13.9926 7.19599 14.1863 7.18017C14.3534 7.16652 14.543 7.16659 14.7018 7.16665ZM14.9994 9.83333V12.5H17.666V9.83333H14.9994ZM25.3685 12.5L28.6302 12.5C28.789 12.4999 28.9787 12.4999 29.1458 12.5135C29.3394 12.5293 29.6168 12.5699 29.9073 12.718C30.2837 12.9097 30.5896 13.2157 30.7814 13.592C30.9294 13.8826 30.97 14.1599 30.9859 14.3536C30.9995 14.5206 30.9994 14.7103 30.9994 14.8691C30.9994 14.8796 30.9994 14.8899 30.9994 14.9V28.7667C30.9994 28.7768 30.9994 28.7871 30.9994 28.7975C30.9994 28.9563 30.9995 29.146 30.9859 29.3131C30.97 29.5067 30.9294 29.784 30.7814 30.0746C30.5896 30.451 30.2837 30.7569 29.9073 30.9487C29.6168 31.0967 29.3394 31.1373 29.1458 31.1532C28.9787 31.1668 28.7891 31.1667 28.6302 31.1667C28.6198 31.1667 28.6095 31.1667 28.5994 31.1667L14.7327 31.1667C14.7226 31.1667 14.7123 31.1667 14.7018 31.1667C14.543 31.1667 14.3533 31.1668 14.1863 31.1531C13.9926 31.1373 13.7153 31.0967 13.4247 30.9487C13.0484 30.7569 12.7424 30.451 12.5507 30.0746C12.4026 29.784 12.362 29.5067 12.3462 29.3131C12.3326 29.146 12.3326 28.9563 12.3327 28.7975V25.5358C12.3326 25.377 12.3326 25.1873 12.3462 25.0202C12.362 24.8266 12.4026 24.5493 12.5507 24.2587C12.7424 23.8824 13.0484 23.5764 13.4247 23.3846C13.7153 23.2366 13.9926 23.196 14.1863 23.1802C14.3534 23.1665 14.543 23.1666 14.7019 23.1667C14.7123 23.1667 14.7226 23.1667 14.7327 23.1667H17.666V20.2333C17.666 20.2232 17.666 20.2129 17.666 20.2025C17.666 20.0437 17.6659 19.854 17.6795 19.6869C17.6954 19.4933 17.736 19.2159 17.884 18.9253C18.0758 18.549 18.3817 18.2431 18.7581 18.0513C19.0486 17.9033 19.326 17.8627 19.5196 17.8468C19.6867 17.8332 19.8764 17.8333 20.0352 17.8333C20.0456 17.8333 20.0559 17.8333 20.066 17.8333H22.9994V14.9C22.9994 14.8899 22.9994 14.8796 22.9994 14.8692C22.9993 14.7103 22.9992 14.5207 23.0129 14.3536C23.0287 14.1599 23.0693 13.8826 23.2174 13.592C23.4091 13.2157 23.7151 12.9097 24.0914 12.718C24.382 12.5699 24.6593 12.5293 24.8529 12.5135C25.02 12.4999 25.2097 12.4999 25.3685 12.5ZM25.666 15.1667V18.1C25.666 18.1101 25.666 18.1204 25.666 18.1309C25.6661 18.2897 25.6662 18.4794 25.6525 18.6464C25.6367 18.8401 25.5961 19.1174 25.448 19.408C25.2563 19.7843 24.9503 20.0903 24.574 20.282C24.2834 20.4301 24.0061 20.4707 23.8125 20.4865C23.6454 20.5001 23.4557 20.5001 23.2969 20.5C23.2865 20.5 23.2762 20.5 23.266 20.5H20.3327V23.4333C20.3327 23.4435 20.3327 23.4538 20.3327 23.4642C20.3328 23.623 20.3328 23.8127 20.3192 23.9798C20.3034 24.1734 20.2628 24.4507 20.1147 24.7413C19.923 25.1176 19.617 25.4236 19.2407 25.6153C18.9501 25.7634 18.6728 25.804 18.4791 25.8198C18.3121 25.8335 18.1224 25.8334 17.9636 25.8333C17.9531 25.8333 17.9428 25.8333 17.9327 25.8333H14.9994V28.5L28.3327 28.5V15.1667L25.666 15.1667ZM5.36853 15.1667C5.37894 15.1667 5.38923 15.1667 5.39937 15.1667H8.59936C8.6095 15.1667 8.61979 15.1667 8.6302 15.1667C8.78903 15.1666 8.97871 15.1665 9.14581 15.1802C9.33943 15.196 9.61675 15.2366 9.90735 15.3847C10.2837 15.5764 10.5896 15.8824 10.7814 16.2587C10.9294 16.5493 10.97 16.8266 10.9859 17.0202C10.9995 17.1873 10.9994 17.377 10.9994 17.5358C10.9994 17.5462 10.9994 17.5565 10.9994 17.5667V20.7667C10.9994 20.7768 10.9994 20.7871 10.9994 20.7975C10.9994 20.9563 10.9995 21.146 10.9859 21.3131C10.97 21.5067 10.9294 21.784 10.7814 22.0746C10.5896 22.451 10.2837 22.7569 9.90735 22.9487C9.61675 23.0967 9.33943 23.1373 9.14581 23.1532C8.97871 23.1668 8.78903 23.1667 8.6302 23.1667C8.61979 23.1667 8.6095 23.1667 8.59936 23.1667H5.39937C5.38923 23.1667 5.37894 23.1667 5.36853 23.1667C5.2097 23.1667 5.02002 23.1668 4.85292 23.1532C4.6593 23.1373 4.38198 23.0967 4.09138 22.9487C3.71506 22.7569 3.4091 22.451 3.21735 22.0746C3.06929 21.784 3.0287 21.5067 3.01288 21.3131C2.99922 21.146 2.9993 20.9563 2.99936 20.7975C2.99936 20.7871 2.99937 20.7768 2.99937 20.7667V17.5667C2.99937 17.5565 2.99936 17.5462 2.99936 17.5358C2.9993 17.377 2.99922 17.1873 3.01288 17.0202C3.0287 16.8266 3.06929 16.5493 3.21735 16.2587C3.4091 15.8824 3.71506 15.5764 4.09138 15.3847C4.38198 15.2366 4.6593 15.196 4.85292 15.1802C5.02002 15.1665 5.2097 15.1666 5.36853 15.1667ZM5.66603 17.8333V20.5H8.3327V17.8333H5.66603Z" />
</svg>
