<svg xmlns="http://www.w3.org/2000/svg" width="33" height="33" viewBox="0 0 33 33" >
  <path fill-rule="evenodd" clip-rule="evenodd" d="M4.33268 16.5C4.33268 9.87256 9.70526 4.49998 16.3327 4.49998C22.9601 4.49998 28.3327 9.87256 28.3327 16.5C28.3327 23.1274 22.9601 28.5 16.3327 28.5C9.70526 28.5 4.33268 23.1274 4.33268 16.5ZM16.3327 1.83331C8.23251 1.83331 1.66602 8.3998 1.66602 16.5C1.66602 24.6002 8.23251 31.1666 16.3327 31.1666C24.4329 31.1666 30.9993 24.6002 30.9993 16.5C30.9993 8.3998 24.4329 1.83331 16.3327 1.83331ZM20.3327 10.5C19.2281 10.5 18.3327 11.3954 18.3327 12.5C18.3327 13.6045 19.2281 14.5 20.3327 14.5C21.4373 14.5 22.3327 13.6045 22.3327 12.5C22.3327 11.3954 21.4373 10.5 20.3327 10.5ZM10.9993 11.1666C10.263 11.1666 9.66602 11.7636 9.66602 12.5C9.66602 13.2364 10.263 13.8333 10.9993 13.8333H13.666C14.4024 13.8333 14.9993 13.2364 14.9993 12.5C14.9993 11.7636 14.4024 11.1666 13.666 11.1666H10.9993ZM16.3326 23.1666C18.3666 23.1666 19.9696 22.3521 21.0335 21.5783C21.568 21.1895 21.9812 20.8009 22.264 20.5059C22.4059 20.3577 22.5166 20.2316 22.5948 20.1384C22.6339 20.0918 22.6651 20.0532 22.6881 20.0242L22.7165 19.9879L22.7261 19.9753L22.7297 19.9705L22.7326 19.9666C23.1744 19.3775 23.055 18.5418 22.4659 18.1C21.8787 17.6595 21.0458 17.7776 20.6029 18.3619L20.5973 18.369C20.5893 18.379 20.5742 18.3978 20.5522 18.4241C20.508 18.4767 20.4364 18.5589 20.3387 18.6608C20.1423 18.8657 19.8472 19.1437 19.465 19.4217C18.6956 19.9812 17.6319 20.5 16.3326 20.5C15.0333 20.5 13.9696 19.9812 13.2002 19.4217C12.818 19.1437 12.5229 18.8657 12.3265 18.6608C12.2289 18.5589 12.1572 18.4767 12.113 18.4241C12.091 18.3978 12.0759 18.379 12.0679 18.369L12.0617 18.3611C11.6188 17.7768 10.7865 17.6595 10.1993 18.1C9.61017 18.5418 9.49078 19.3775 9.9326 19.9666L10.9993 19.1666C9.9326 19.9666 9.93395 19.9684 9.93395 19.9684L9.93549 19.9705L9.93914 19.9753L9.94875 19.9879L9.97715 20.0242C10.0001 20.0532 10.0313 20.0918 10.0704 20.1384C10.1486 20.2316 10.2593 20.3577 10.4012 20.5059C10.684 20.8009 11.0972 21.1895 11.6317 21.5783C12.6956 22.3521 14.2986 23.1666 16.3326 23.1666Z" />
</svg>