<svg width="1440" height="80" viewBox="0 0 1440 80" xmlns="http://www.w3.org/2000/svg">
<path d="M21.7502 47.9492L19.3491 45.56L14.962 41.1946L14.7577 40.9913L17.114 38.6465L21.6991 43.2089C22.2866 42.2176 22.6186 41.0675 22.6186 39.8411C22.6186 36.1684 19.6173 33.1819 15.9263 33.1819C12.2353 33.1819 9.23392 36.1684 9.23392 39.8411C9.23392 43.5139 12.0501 46.3098 15.5814 46.494L18.5636 49.4615C17.7207 49.6902 16.8394 49.811 15.9263 49.811C10.4025 49.811 5.9069 45.3376 5.9069 39.8411C5.9069 34.3447 10.4025 29.8713 15.9263 29.8713C21.45 29.8713 25.9456 34.3447 25.9456 39.8411C25.9456 41.9825 25.2624 43.9714 24.1001 45.6044L28.3084 49.7919C30.5179 47.0723 31.8462 43.6092 31.8462 39.8411C31.8462 31.1104 24.7004 24 15.9199 24C7.13936 24 0 31.1104 0 39.8411C0 48.5719 7.14575 55.6823 15.9199 55.6823C18.4998 55.6823 20.9391 55.0659 23.0976 53.9793L25.1283 56C26.1117 55.4408 27.044 54.799 27.9061 54.081L25.952 52.1366L21.7438 47.9492H21.7502Z" />
<path d="M57.3337 50.88L55.1737 47.976C54.5337 48.104 53.9097 48.168 53.3017 48.168C51.7177 48.168 50.2617 47.8 48.9337 47.064C47.6217 46.328 46.5737 45.304 45.7897 43.992C45.0217 42.664 44.6377 41.176 44.6377 39.528C44.6377 37.88 45.0217 36.4 45.7897 35.088C46.5737 33.776 47.6217 32.752 48.9337 32.016C50.2617 31.28 51.7177 30.912 53.3017 30.912C54.8857 30.912 56.3337 31.28 57.6457 32.016C58.9737 32.752 60.0137 33.776 60.7657 35.088C61.5337 36.4 61.9177 37.88 61.9177 39.528C61.9177 40.968 61.6217 42.288 61.0297 43.488C60.4537 44.672 59.6457 45.656 58.6057 46.44L62.3017 50.88H57.3337ZM48.8377 39.528C48.8377 41.016 49.2377 42.208 50.0377 43.104C50.8537 43.984 51.9417 44.424 53.3017 44.424C54.6457 44.424 55.7177 43.976 56.5177 43.08C57.3337 42.184 57.7417 41 57.7417 39.528C57.7417 38.04 57.3337 36.856 56.5177 35.976C55.7177 35.08 54.6457 34.632 53.3017 34.632C51.9417 34.632 50.8537 35.072 50.0377 35.952C49.2377 36.832 48.8377 38.024 48.8377 39.528ZM68.2798 31.152V41.232C68.2798 42.24 68.5278 43.016 69.0238 43.56C69.5198 44.104 70.2478 44.376 71.2078 44.376C72.1678 44.376 72.9038 44.104 73.4158 43.56C73.9278 43.016 74.1838 42.24 74.1838 41.232V31.152H78.2878V41.208C78.2878 42.712 77.9678 43.984 77.3278 45.024C76.6878 46.064 75.8238 46.848 74.7358 47.376C73.6638 47.904 72.4638 48.168 71.1358 48.168C69.8078 48.168 68.6158 47.912 67.5598 47.4C66.5198 46.872 65.6958 46.088 65.0878 45.048C64.4798 43.992 64.1758 42.712 64.1758 41.208V31.152H68.2798ZM85.2736 34.44V37.848H90.7696V41.016H85.2736V44.712H91.4896V48H81.1696V31.152H91.4896V34.44H85.2736ZM100.25 48.168C99.018 48.168 97.914 47.968 96.938 47.568C95.962 47.168 95.178 46.576 94.586 45.792C94.01 45.008 93.706 44.064 93.674 42.96H98.042C98.106 43.584 98.322 44.064 98.69 44.4C99.058 44.72 99.538 44.88 100.13 44.88C100.738 44.88 101.218 44.744 101.57 44.472C101.922 44.184 102.098 43.792 102.098 43.296C102.098 42.88 101.954 42.536 101.666 42.264C101.394 41.992 101.05 41.768 100.634 41.592C100.234 41.416 99.658 41.216 98.906 40.992C97.818 40.656 96.93 40.32 96.242 39.984C95.554 39.648 94.962 39.152 94.466 38.496C93.97 37.84 93.722 36.984 93.722 35.928C93.722 34.36 94.29 33.136 95.426 32.256C96.562 31.36 98.042 30.912 99.866 30.912C101.722 30.912 103.218 31.36 104.354 32.256C105.49 33.136 106.098 34.368 106.178 35.952H101.738C101.706 35.408 101.506 34.984 101.138 34.68C100.77 34.36 100.298 34.2 99.722 34.2C99.226 34.2 98.826 34.336 98.522 34.608C98.218 34.864 98.066 35.24 98.066 35.736C98.066 36.28 98.322 36.704 98.834 37.008C99.346 37.312 100.146 37.64 101.234 37.992C102.322 38.36 103.202 38.712 103.874 39.048C104.562 39.384 105.154 39.872 105.65 40.512C106.146 41.152 106.394 41.976 106.394 42.984C106.394 43.944 106.146 44.816 105.65 45.6C105.17 46.384 104.466 47.008 103.538 47.472C102.61 47.936 101.514 48.168 100.25 48.168ZM121.04 31.152V34.44H116.576V48H112.472V34.44H108.008V31.152H121.04ZM127.203 31.152V48H123.099V31.152H127.203ZM138.145 48.168C136.561 48.168 135.105 47.8 133.777 47.064C132.465 46.328 131.417 45.304 130.633 43.992C129.865 42.664 129.481 41.176 129.481 39.528C129.481 37.88 129.865 36.4 130.633 35.088C131.417 33.776 132.465 32.752 133.777 32.016C135.105 31.28 136.561 30.912 138.145 30.912C139.729 30.912 141.177 31.28 142.489 32.016C143.817 32.752 144.857 33.776 145.609 35.088C146.377 36.4 146.761 37.88 146.761 39.528C146.761 41.176 146.377 42.664 145.609 43.992C144.841 45.304 143.801 46.328 142.489 47.064C141.177 47.8 139.729 48.168 138.145 48.168ZM138.145 44.424C139.489 44.424 140.561 43.976 141.361 43.08C142.177 42.184 142.585 41 142.585 39.528C142.585 38.04 142.177 36.856 141.361 35.976C140.561 35.08 139.489 34.632 138.145 34.632C136.785 34.632 135.697 35.072 134.881 35.952C134.081 36.832 133.681 38.024 133.681 39.528C133.681 41.016 134.081 42.208 134.881 43.104C135.697 43.984 136.785 44.424 138.145 44.424ZM164.117 48H160.013L153.149 37.608V48H149.045V31.152H153.149L160.013 41.592V31.152H164.117V48ZM171.196 31.152V48H167.092V31.152H171.196ZM185.138 31.152V34.44H178.274V37.992H183.41V41.184H178.274V48H174.17V31.152H185.138ZM201.743 31.152L195.911 42.432V48H191.807V42.432L185.975 31.152H190.631L193.895 38.208L197.135 31.152H201.743Z" />
<path d="M552.327 37.324C552.327 37.996 552.165 38.626 551.841 39.214C551.529 39.802 551.031 40.276 550.347 40.636C549.675 40.996 548.823 41.176 547.791 41.176H545.685V46H543.165V33.436H547.791C548.763 33.436 549.591 33.604 550.275 33.94C550.959 34.276 551.469 34.738 551.805 35.326C552.153 35.914 552.327 36.58 552.327 37.324ZM547.683 39.142C548.379 39.142 548.895 38.986 549.231 38.674C549.567 38.35 549.735 37.9 549.735 37.324C549.735 36.1 549.051 35.488 547.683 35.488H545.685V39.142H547.683ZM558.544 46.162C557.584 46.162 556.72 45.952 555.952 45.532C555.184 45.1 554.578 44.494 554.134 43.714C553.702 42.934 553.486 42.034 553.486 41.014C553.486 39.994 553.708 39.094 554.152 38.314C554.608 37.534 555.226 36.934 556.006 36.514C556.786 36.082 557.656 35.866 558.616 35.866C559.576 35.866 560.446 36.082 561.226 36.514C562.006 36.934 562.618 37.534 563.062 38.314C563.518 39.094 563.746 39.994 563.746 41.014C563.746 42.034 563.512 42.934 563.044 43.714C562.588 44.494 561.964 45.1 561.172 45.532C560.392 45.952 559.516 46.162 558.544 46.162ZM558.544 43.966C559 43.966 559.426 43.858 559.822 43.642C560.23 43.414 560.554 43.078 560.794 42.634C561.034 42.19 561.154 41.65 561.154 41.014C561.154 40.066 560.902 39.34 560.398 38.836C559.906 38.32 559.3 38.062 558.58 38.062C557.86 38.062 557.254 38.32 556.762 38.836C556.282 39.34 556.042 40.066 556.042 41.014C556.042 41.962 556.276 42.694 556.744 43.21C557.224 43.714 557.824 43.966 558.544 43.966ZM568.115 32.68V46H565.595V32.68H568.115ZM573.124 32.68V46H570.604V32.68H573.124Z" />
<path d="M641.525 48.214L639.617 45.928C639.089 46.06 638.549 46.126 637.997 46.126C636.821 46.126 635.741 45.85 634.757 45.298C633.773 44.746 632.993 43.984 632.417 43.012C631.841 42.028 631.553 40.918 631.553 39.682C631.553 38.458 631.841 37.36 632.417 36.388C632.993 35.404 633.773 34.636 634.757 34.084C635.741 33.532 636.821 33.256 637.997 33.256C639.185 33.256 640.265 33.532 641.237 34.084C642.221 34.636 642.995 35.404 643.559 36.388C644.135 37.36 644.423 38.458 644.423 39.682C644.423 40.798 644.183 41.818 643.703 42.742C643.235 43.654 642.593 44.398 641.777 44.974L644.657 48.214H641.525ZM634.145 39.682C634.145 40.522 634.307 41.26 634.631 41.896C634.955 42.532 635.405 43.024 635.981 43.372C636.569 43.708 637.241 43.876 637.997 43.876C638.753 43.876 639.419 43.708 639.995 43.372C640.571 43.024 641.021 42.532 641.345 41.896C641.669 41.26 641.831 40.522 641.831 39.682C641.831 38.842 641.669 38.11 641.345 37.486C641.021 36.85 640.571 36.364 639.995 36.028C639.419 35.692 638.753 35.524 637.997 35.524C637.241 35.524 636.569 35.692 635.981 36.028C635.405 36.364 634.955 36.85 634.631 37.486C634.307 38.11 634.145 38.842 634.145 39.682ZM655.747 36.028V46H653.209V44.74C652.885 45.172 652.459 45.514 651.931 45.766C651.415 46.006 650.851 46.126 650.239 46.126C649.459 46.126 648.769 45.964 648.169 45.64C647.569 45.304 647.095 44.818 646.747 44.182C646.411 43.534 646.243 42.766 646.243 41.878V36.028H648.763V41.518C648.763 42.31 648.961 42.922 649.357 43.354C649.753 43.774 650.293 43.984 650.977 43.984C651.673 43.984 652.219 43.774 652.615 43.354C653.011 42.922 653.209 42.31 653.209 41.518V36.028H655.747ZM659.511 34.84C659.067 34.84 658.695 34.702 658.395 34.426C658.107 34.138 657.963 33.784 657.963 33.364C657.963 32.944 658.107 32.596 658.395 32.32C658.695 32.032 659.067 31.888 659.511 31.888C659.955 31.888 660.321 32.032 660.609 32.32C660.909 32.596 661.059 32.944 661.059 33.364C661.059 33.784 660.909 34.138 660.609 34.426C660.321 34.702 659.955 34.84 659.511 34.84ZM660.753 36.028V46H658.233V36.028H660.753ZM665.547 43.93H669.993V46H662.685V43.966L667.041 38.098H662.703V36.028H669.939V38.062L665.547 43.93ZM678.694 28.954L673.834 49.258H671.368L676.228 28.954H678.694ZM690.058 48.214L688.15 45.928C687.622 46.06 687.082 46.126 686.53 46.126C685.354 46.126 684.274 45.85 683.29 45.298C682.306 44.746 681.526 43.984 680.95 43.012C680.374 42.028 680.086 40.918 680.086 39.682C680.086 38.458 680.374 37.36 680.95 36.388C681.526 35.404 682.306 34.636 683.29 34.084C684.274 33.532 685.354 33.256 686.53 33.256C687.718 33.256 688.798 33.532 689.77 34.084C690.754 34.636 691.528 35.404 692.092 36.388C692.668 37.36 692.956 38.458 692.956 39.682C692.956 40.798 692.716 41.818 692.236 42.742C691.768 43.654 691.126 44.398 690.31 44.974L693.19 48.214H690.058ZM682.678 39.682C682.678 40.522 682.84 41.26 683.164 41.896C683.488 42.532 683.938 43.024 684.514 43.372C685.102 43.708 685.774 43.876 686.53 43.876C687.286 43.876 687.952 43.708 688.528 43.372C689.104 43.024 689.554 42.532 689.878 41.896C690.202 41.26 690.364 40.522 690.364 39.682C690.364 38.842 690.202 38.11 689.878 37.486C689.554 36.85 689.104 36.364 688.528 36.028C687.952 35.692 687.286 35.524 686.53 35.524C685.774 35.524 685.102 35.692 684.514 36.028C683.938 36.364 683.488 36.85 683.164 37.486C682.84 38.11 682.678 38.842 682.678 39.682ZM704.28 36.028V46H701.742V44.74C701.418 45.172 700.992 45.514 700.464 45.766C699.948 46.006 699.384 46.126 698.772 46.126C697.992 46.126 697.302 45.964 696.702 45.64C696.102 45.304 695.628 44.818 695.28 44.182C694.944 43.534 694.776 42.766 694.776 41.878V36.028H697.296V41.518C697.296 42.31 697.494 42.922 697.89 43.354C698.286 43.774 698.826 43.984 699.51 43.984C700.206 43.984 700.752 43.774 701.148 43.354C701.544 42.922 701.742 42.31 701.742 41.518V36.028H704.28ZM716.036 40.798C716.036 41.158 716.012 41.482 715.964 41.77H708.674C708.734 42.49 708.986 43.054 709.43 43.462C709.874 43.87 710.42 44.074 711.068 44.074C712.004 44.074 712.67 43.672 713.066 42.868H715.784C715.496 43.828 714.944 44.62 714.128 45.244C713.312 45.856 712.31 46.162 711.122 46.162C710.162 46.162 709.298 45.952 708.53 45.532C707.774 45.1 707.18 44.494 706.748 43.714C706.328 42.934 706.118 42.034 706.118 41.014C706.118 39.982 706.328 39.076 706.748 38.296C707.168 37.516 707.756 36.916 708.512 36.496C709.268 36.076 710.138 35.866 711.122 35.866C712.07 35.866 712.916 36.07 713.66 36.478C714.416 36.886 714.998 37.468 715.406 38.224C715.826 38.968 716.036 39.826 716.036 40.798ZM713.426 40.078C713.414 39.43 713.18 38.914 712.724 38.53C712.268 38.134 711.71 37.936 711.05 37.936C710.426 37.936 709.898 38.128 709.466 38.512C709.046 38.884 708.788 39.406 708.692 40.078H713.426ZM721.692 46.162C720.876 46.162 720.144 46.018 719.496 45.73C718.848 45.43 718.332 45.028 717.948 44.524C717.576 44.02 717.372 43.462 717.336 42.85H719.874C719.922 43.234 720.108 43.552 720.432 43.804C720.768 44.056 721.182 44.182 721.674 44.182C722.154 44.182 722.526 44.086 722.79 43.894C723.066 43.702 723.204 43.456 723.204 43.156C723.204 42.832 723.036 42.592 722.7 42.436C722.376 42.268 721.854 42.088 721.134 41.896C720.39 41.716 719.778 41.53 719.298 41.338C718.83 41.146 718.422 40.852 718.074 40.456C717.738 40.06 717.57 39.526 717.57 38.854C717.57 38.302 717.726 37.798 718.038 37.342C718.362 36.886 718.818 36.526 719.406 36.262C720.006 35.998 720.708 35.866 721.512 35.866C722.7 35.866 723.648 36.166 724.356 36.766C725.064 37.354 725.454 38.152 725.526 39.16H723.114C723.078 38.764 722.91 38.452 722.61 38.224C722.322 37.984 721.932 37.864 721.44 37.864C720.984 37.864 720.63 37.948 720.378 38.116C720.138 38.284 720.018 38.518 720.018 38.818C720.018 39.154 720.186 39.412 720.522 39.592C720.858 39.76 721.38 39.934 722.088 40.114C722.808 40.294 723.402 40.48 723.87 40.672C724.338 40.864 724.74 41.164 725.076 41.572C725.424 41.968 725.604 42.496 725.616 43.156C725.616 43.732 725.454 44.248 725.13 44.704C724.818 45.16 724.362 45.52 723.762 45.784C723.174 46.036 722.484 46.162 721.692 46.162ZM730.618 38.098V42.922C730.618 43.258 730.696 43.504 730.852 43.66C731.02 43.804 731.296 43.876 731.68 43.876H732.85V46H731.266C729.142 46 728.08 44.968 728.08 42.904V38.098H726.892V36.028H728.08V33.562H730.618V36.028H732.85V38.098H730.618ZM735.941 34.84C735.497 34.84 735.125 34.702 734.825 34.426C734.537 34.138 734.393 33.784 734.393 33.364C734.393 32.944 734.537 32.596 734.825 32.32C735.125 32.032 735.497 31.888 735.941 31.888C736.385 31.888 736.751 32.032 737.039 32.32C737.339 32.596 737.489 32.944 737.489 33.364C737.489 33.784 737.339 34.138 737.039 34.426C736.751 34.702 736.385 34.84 735.941 34.84ZM737.183 36.028V46H734.663V36.028H737.183ZM744.101 46.162C743.141 46.162 742.277 45.952 741.509 45.532C740.741 45.1 740.135 44.494 739.691 43.714C739.259 42.934 739.043 42.034 739.043 41.014C739.043 39.994 739.265 39.094 739.709 38.314C740.165 37.534 740.783 36.934 741.563 36.514C742.343 36.082 743.213 35.866 744.173 35.866C745.133 35.866 746.003 36.082 746.783 36.514C747.563 36.934 748.175 37.534 748.619 38.314C749.075 39.094 749.303 39.994 749.303 41.014C749.303 42.034 749.069 42.934 748.601 43.714C748.145 44.494 747.521 45.1 746.729 45.532C745.949 45.952 745.073 46.162 744.101 46.162ZM744.101 43.966C744.557 43.966 744.983 43.858 745.379 43.642C745.787 43.414 746.111 43.078 746.351 42.634C746.591 42.19 746.711 41.65 746.711 41.014C746.711 40.066 746.459 39.34 745.955 38.836C745.463 38.32 744.857 38.062 744.137 38.062C743.417 38.062 742.811 38.32 742.319 38.836C741.839 39.34 741.599 40.066 741.599 41.014C741.599 41.962 741.833 42.694 742.301 43.21C742.781 43.714 743.381 43.966 744.101 43.966ZM756.677 35.884C757.865 35.884 758.825 36.262 759.557 37.018C760.289 37.762 760.655 38.806 760.655 40.15V46H758.135V40.492C758.135 39.7 757.937 39.094 757.541 38.674C757.145 38.242 756.605 38.026 755.921 38.026C755.225 38.026 754.673 38.242 754.265 38.674C753.869 39.094 753.671 39.7 753.671 40.492V46H751.151V36.028H753.671V37.27C754.007 36.838 754.433 36.502 754.949 36.262C755.477 36.01 756.053 35.884 756.677 35.884Z" />
<path d="M823.503 46.126C822.627 46.126 821.835 45.976 821.127 45.676C820.431 45.376 819.879 44.944 819.471 44.38C819.063 43.816 818.853 43.15 818.841 42.382H821.541C821.577 42.898 821.757 43.306 822.081 43.606C822.417 43.906 822.873 44.056 823.449 44.056C824.037 44.056 824.499 43.918 824.835 43.642C825.171 43.354 825.339 42.982 825.339 42.526C825.339 42.154 825.225 41.848 824.997 41.608C824.769 41.368 824.481 41.182 824.133 41.05C823.797 40.906 823.329 40.75 822.729 40.582C821.913 40.342 821.247 40.108 820.731 39.88C820.227 39.64 819.789 39.286 819.417 38.818C819.057 38.338 818.877 37.702 818.877 36.91C818.877 36.166 819.063 35.518 819.435 34.966C819.807 34.414 820.329 33.994 821.001 33.706C821.673 33.406 822.441 33.256 823.305 33.256C824.601 33.256 825.651 33.574 826.455 34.21C827.271 34.834 827.721 35.71 827.805 36.838H825.033C825.009 36.406 824.823 36.052 824.475 35.776C824.139 35.488 823.689 35.344 823.125 35.344C822.633 35.344 822.237 35.47 821.937 35.722C821.649 35.974 821.505 36.34 821.505 36.82C821.505 37.156 821.613 37.438 821.829 37.666C822.057 37.882 822.333 38.062 822.657 38.206C822.993 38.338 823.461 38.494 824.061 38.674C824.877 38.914 825.543 39.154 826.059 39.394C826.575 39.634 827.019 39.994 827.391 40.474C827.763 40.954 827.949 41.584 827.949 42.364C827.949 43.036 827.775 43.66 827.427 44.236C827.079 44.812 826.569 45.274 825.897 45.622C825.225 45.958 824.427 46.126 823.503 46.126ZM839.548 36.028V46H837.01V44.74C836.686 45.172 836.26 45.514 835.732 45.766C835.216 46.006 834.652 46.126 834.04 46.126C833.26 46.126 832.57 45.964 831.97 45.64C831.37 45.304 830.896 44.818 830.548 44.182C830.212 43.534 830.044 42.766 830.044 41.878V36.028H832.564V41.518C832.564 42.31 832.762 42.922 833.158 43.354C833.554 43.774 834.094 43.984 834.778 43.984C835.474 43.984 836.02 43.774 836.416 43.354C836.812 42.922 837.01 42.31 837.01 41.518V36.028H839.548ZM844.554 37.576C844.878 37.048 845.298 36.634 845.814 36.334C846.342 36.034 846.942 35.884 847.614 35.884V38.53H846.948C846.156 38.53 845.556 38.716 845.148 39.088C844.752 39.46 844.554 40.108 844.554 41.032V46H842.034V36.028H844.554V37.576ZM853.469 43.678L855.989 36.028H858.671L854.981 46H851.921L848.249 36.028H850.949L853.469 43.678ZM869.357 40.798C869.357 41.158 869.333 41.482 869.285 41.77H861.995C862.055 42.49 862.307 43.054 862.751 43.462C863.195 43.87 863.741 44.074 864.389 44.074C865.325 44.074 865.991 43.672 866.387 42.868H869.105C868.817 43.828 868.265 44.62 867.449 45.244C866.633 45.856 865.631 46.162 864.443 46.162C863.483 46.162 862.619 45.952 861.851 45.532C861.095 45.1 860.501 44.494 860.069 43.714C859.649 42.934 859.439 42.034 859.439 41.014C859.439 39.982 859.649 39.076 860.069 38.296C860.489 37.516 861.077 36.916 861.833 36.496C862.589 36.076 863.459 35.866 864.443 35.866C865.391 35.866 866.237 36.07 866.981 36.478C867.737 36.886 868.319 37.468 868.727 38.224C869.147 38.968 869.357 39.826 869.357 40.798ZM866.747 40.078C866.735 39.43 866.501 38.914 866.045 38.53C865.589 38.134 865.031 37.936 864.371 37.936C863.747 37.936 863.219 38.128 862.787 38.512C862.367 38.884 862.109 39.406 862.013 40.078H866.747ZM880.736 36.028L874.562 50.716H871.88L874.04 45.748L870.044 36.028H872.87L875.444 42.994L878.054 36.028H880.736Z" />
<rect x="1312" y="16" width="128" height="48" rx="24" />
<path fill-rule="evenodd" clip-rule="evenodd" d="M1357.75 48.25V47.5C1357.75 44.6005 1355.4 42.25 1352.5 42.25C1349.75 42.25 1346.25 42.25 1343.5 42.25C1340.6 42.25 1338.25 44.6005 1338.25 47.5V48.25C1338.25 48.847 1338.49 49.4193 1338.91 49.8408C1339.33 50.263 1339.9 50.5 1340.5 50.5H1355.5C1356.1 50.5 1356.67 50.263 1357.09 49.8408C1357.51 49.4193 1357.75 48.847 1357.75 48.25ZM1348 29.5C1344.9 29.5 1342.38 32.0208 1342.38 35.125C1342.38 38.2292 1344.9 40.75 1348 40.75C1351.1 40.75 1353.62 38.2292 1353.62 35.125C1353.62 32.0208 1351.1 29.5 1348 29.5Z" />
<path d="M1371.73 44.224H1375.41V46H1369.49V34.832H1371.73V44.224ZM1380.77 46.144C1379.91 46.144 1379.15 45.9573 1378.46 45.584C1377.78 45.2 1377.24 44.6613 1376.85 43.968C1376.46 43.2747 1376.27 42.4747 1376.27 41.568C1376.27 40.6613 1376.47 39.8613 1376.86 39.168C1377.27 38.4747 1377.82 37.9413 1378.51 37.568C1379.2 37.184 1379.98 36.992 1380.83 36.992C1381.68 36.992 1382.46 37.184 1383.15 37.568C1383.84 37.9413 1384.39 38.4747 1384.78 39.168C1385.19 39.8613 1385.39 40.6613 1385.39 41.568C1385.39 42.4747 1385.18 43.2747 1384.77 43.968C1384.36 44.6613 1383.81 45.2 1383.1 45.584C1382.41 45.9573 1381.63 46.144 1380.77 46.144ZM1380.77 44.192C1381.17 44.192 1381.55 44.096 1381.9 43.904C1382.27 43.7013 1382.55 43.4027 1382.77 43.008C1382.98 42.6133 1383.09 42.1333 1383.09 41.568C1383.09 40.7253 1382.86 40.08 1382.41 39.632C1381.98 39.1733 1381.44 38.944 1380.8 38.944C1380.16 38.944 1379.62 39.1733 1379.18 39.632C1378.76 40.08 1378.54 40.7253 1378.54 41.568C1378.54 42.4107 1378.75 43.0613 1379.17 43.52C1379.59 43.968 1380.13 44.192 1380.77 44.192ZM1390.51 36.992C1391.17 36.992 1391.75 37.1253 1392.25 37.392C1392.75 37.648 1393.15 37.984 1393.43 38.4V37.136H1395.69V46.064C1395.69 46.8853 1395.52 47.616 1395.19 48.256C1394.86 48.9067 1394.37 49.4187 1393.71 49.792C1393.04 50.176 1392.24 50.368 1391.31 50.368C1390.05 50.368 1389.01 50.0747 1388.2 49.488C1387.4 48.9013 1386.95 48.1013 1386.84 47.088H1389.07C1389.18 47.4933 1389.43 47.8133 1389.82 48.048C1390.21 48.2933 1390.69 48.416 1391.24 48.416C1391.89 48.416 1392.42 48.2187 1392.83 47.824C1393.23 47.44 1393.43 46.8533 1393.43 46.064V44.688C1393.15 45.104 1392.75 45.4507 1392.23 45.728C1391.73 46.0053 1391.16 46.144 1390.51 46.144C1389.76 46.144 1389.08 45.952 1388.46 45.568C1387.84 45.184 1387.35 44.6453 1386.99 43.952C1386.63 43.248 1386.46 42.4427 1386.46 41.536C1386.46 40.64 1386.63 39.8453 1386.99 39.152C1387.35 38.4587 1387.83 37.9253 1388.44 37.552C1389.06 37.1787 1389.75 36.992 1390.51 36.992ZM1393.43 41.568C1393.43 41.024 1393.33 40.56 1393.11 40.176C1392.9 39.7813 1392.61 39.4827 1392.25 39.28C1391.89 39.0667 1391.5 38.96 1391.08 38.96C1390.67 38.96 1390.28 39.0613 1389.93 39.264C1389.58 39.4667 1389.29 39.7653 1389.07 40.16C1388.85 40.544 1388.75 41.0027 1388.75 41.536C1388.75 42.0693 1388.85 42.5387 1389.07 42.944C1389.29 43.3387 1389.58 43.6427 1389.93 43.856C1390.29 44.0693 1390.68 44.176 1391.08 44.176C1391.5 44.176 1391.89 44.0747 1392.25 43.872C1392.61 43.6587 1392.9 43.36 1393.11 42.976C1393.33 42.5813 1393.43 42.112 1393.43 41.568ZM1402.83 36.08C1402.43 36.08 1402.1 35.9573 1401.83 35.712C1401.58 35.456 1401.45 35.1413 1401.45 34.768C1401.45 34.3947 1401.58 34.0853 1401.83 33.84C1402.1 33.584 1402.43 33.456 1402.83 33.456C1403.22 33.456 1403.55 33.584 1403.8 33.84C1404.07 34.0853 1404.2 34.3947 1404.2 34.768C1404.2 35.1413 1404.07 35.456 1403.8 35.712C1403.55 35.9573 1403.22 36.08 1402.83 36.08ZM1403.93 37.136V46H1401.69V37.136H1403.93ZM1411.06 37.008C1412.11 37.008 1412.96 37.344 1413.62 38.016C1414.27 38.6773 1414.59 39.6053 1414.59 40.8V46H1412.35V41.104C1412.35 40.4 1412.18 39.8613 1411.82 39.488C1411.47 39.104 1410.99 38.912 1410.38 38.912C1409.76 38.912 1409.27 39.104 1408.91 39.488C1408.56 39.8613 1408.38 40.4 1408.38 41.104V46H1406.14V37.136H1408.38V38.24C1408.68 37.856 1409.06 37.5573 1409.52 37.344C1409.99 37.12 1410.5 37.008 1411.06 37.008Z" />
</svg>
