<svg width="32" height="32" viewBox="0 0 32 32" xmlns="http://www.w3.org/2000/svg">
<path d="M21.7502 23.9492L19.3491 21.56L14.962 17.1946L14.7577 16.9913L17.114 14.6465L21.6991 19.2089C22.2866 18.2176 22.6186 17.0675 22.6186 15.8411C22.6186 12.1684 19.6173 9.18189 15.9263 9.18189C12.2353 9.18189 9.23392 12.1684 9.23392 15.8411C9.23392 19.5139 12.0501 22.3098 15.5814 22.494L18.5636 25.4615C17.7207 25.6902 16.8394 25.811 15.9263 25.811C10.4025 25.811 5.9069 21.3376 5.9069 15.8411C5.9069 10.3447 10.4025 5.87133 15.9263 5.87133C21.45 5.87133 25.9456 10.3447 25.9456 15.8411C25.9456 17.9825 25.2624 19.9714 24.1001 21.6044L28.3084 25.7919C30.5179 23.0723 31.8462 19.6092 31.8462 15.8411C31.8462 7.11041 24.7004 0 15.9199 0C7.13936 0 0 7.11041 0 15.8411C0 24.5719 7.14575 31.6823 15.9199 31.6823C18.4998 31.6823 20.9391 31.0659 23.0976 29.9793L25.1283 32C26.1117 31.4408 27.044 30.799 27.9061 30.081L25.952 28.1366L21.7438 23.9492H21.7502Z" />
</svg>
