<svg width="33" height="33" viewBox="0 0 33 33" xmlns="http://www.w3.org/2000/svg">
<path fill-rule="evenodd" clip-rule="evenodd" d="M11.5486 1.83331H21.7847C22.4876 1.83329 23.0939 1.83327 23.5934 1.87407C24.1205 1.91714 24.6448 2.01223 25.1493 2.26929C25.9019 2.65278 26.5139 3.26471 26.8974 4.01735C27.1544 4.52186 27.2495 5.04615 27.2926 5.57328C27.3334 6.07271 27.3334 6.67907 27.3333 7.38195V25.618C27.3334 26.3209 27.3334 26.9273 27.2926 27.4267C27.2495 27.9538 27.1544 28.4781 26.8974 28.9826C26.5139 29.7353 25.9019 30.3472 25.1493 30.7307C24.6448 30.9877 24.1205 31.0828 23.5934 31.1259C23.094 31.1667 22.4876 31.1667 21.7848 31.1666H11.5486C10.8457 31.1667 10.2394 31.1667 9.73997 31.1259C9.21284 31.0828 8.68855 30.9877 8.18404 30.7307C7.43139 30.3472 6.81947 29.7353 6.43598 28.9826C6.17892 28.4781 6.08383 27.9538 6.04076 27.4267C5.99996 26.9273 5.99998 26.3209 6 25.618V7.38192C5.99998 6.67906 5.99996 6.07271 6.04076 5.57328C6.08383 5.04615 6.17892 4.52186 6.43598 4.01735C6.81947 3.26471 7.43139 2.65278 8.18404 2.26929C8.68855 2.01223 9.21284 1.91714 9.73997 1.87407C10.2394 1.83327 10.8457 1.83329 11.5486 1.83331ZM9.95712 4.53189C9.5949 4.56148 9.46061 4.61172 9.39468 4.64531C9.1438 4.77314 8.93983 4.97711 8.81199 5.22799C8.7784 5.29392 8.72817 5.42821 8.69857 5.79043C8.66771 6.16821 8.66667 6.66458 8.66667 7.43332V25.5666C8.66667 26.3354 8.66771 26.8318 8.69857 27.2095C8.72817 27.5718 8.7784 27.706 8.81199 27.772C8.93982 28.0229 9.1438 28.2268 9.39468 28.3547C9.46061 28.3882 9.5949 28.4385 9.95712 28.4681C10.3349 28.4989 10.8313 28.5 11.6 28.5H21.7333C22.5021 28.5 22.9984 28.4989 23.3762 28.4681C23.7384 28.4385 23.8727 28.3882 23.9387 28.3547C24.1895 28.2268 24.3935 28.0229 24.5213 27.772C24.5549 27.706 24.6052 27.5718 24.6348 27.2095C24.6656 26.8318 24.6667 26.3354 24.6667 25.5666V7.43332C24.6667 6.66458 24.6656 6.16821 24.6348 5.79043C24.6052 5.42821 24.5549 5.29392 24.5213 5.22799C24.3935 4.97711 24.1895 4.77314 23.9387 4.64531C23.8727 4.61172 23.7384 4.56148 23.3762 4.53189C22.9984 4.50102 22.5021 4.49998 21.7333 4.49998H11.6C10.8313 4.49998 10.3349 4.50102 9.95712 4.53189ZM14.6667 23.8333C14.6667 22.7287 15.5621 21.8333 16.6667 21.8333C17.7712 21.8333 18.6667 22.7287 18.6667 23.8333C18.6667 24.9379 17.7712 25.8333 16.6667 25.8333C15.5621 25.8333 14.6667 24.9379 14.6667 23.8333Z" />
</svg>
