<svg width="32" height="33" viewBox="0 0 32 33" xmlns="http://www.w3.org/2000/svg">
<path fill-rule="evenodd" clip-rule="evenodd" d="M26.9072 16.4732C26.9078 16.879 27.0335 17.2748 27.2672 17.6066L28.4005 19.1132C28.8791 19.7925 29.1605 20.5907 29.2138 21.4199C29.2441 22.0382 29.1403 22.6558 28.9095 23.2302C28.6787 23.8046 28.3265 24.3223 27.8769 24.7478C27.4273 25.1734 26.891 25.4967 26.3047 25.6955C25.7185 25.8944 25.0962 25.964 24.4805 25.8999L22.5738 25.6999C22.1718 25.6601 21.7671 25.7438 21.4138 25.9399C21.0739 26.1434 20.8041 26.4457 20.6405 26.8065L19.8672 28.5665C19.5248 29.3223 18.9745 29.9651 18.2805 30.4199C17.5867 30.8731 16.7759 31.1145 15.9472 31.1145C15.1184 31.1145 14.3077 30.8731 13.6138 30.4199C12.9198 29.9651 12.3695 29.3223 12.0272 28.5665L11.2538 26.8065C11.0889 26.4423 10.8137 26.1392 10.4671 25.9399C10.118 25.7324 9.71103 25.6435 9.30715 25.6866L7.40049 25.8866C6.57906 25.9756 5.74951 25.8227 5.01382 25.4466C4.27785 25.0792 3.6651 24.5051 3.25063 23.7946C2.83617 23.084 2.638 22.268 2.68048 21.4466C2.71936 20.6186 3.00237 19.8206 3.49384 19.1532L4.61383 17.6066C4.85524 17.2805 4.98554 16.8855 4.98554 16.4799C4.98554 16.0742 4.85524 15.6793 4.61383 15.3532L3.49384 13.8065C3.00237 13.1391 2.71936 12.3412 2.68048 11.5132C2.64591 10.895 2.74634 10.2767 2.97475 9.70113C3.20317 9.1256 3.55413 8.60665 4.00324 8.18038C4.45235 7.75411 4.98884 7.43068 5.5755 7.23258C6.16216 7.03449 6.7849 6.96649 7.40049 7.03324L9.3205 7.23324C9.71843 7.27555 10.1196 7.19156 10.4671 6.99321C10.8147 6.78905 11.0897 6.48141 11.2538 6.11324L12.0272 4.35323C12.3695 3.60081 12.9211 2.96279 13.6162 2.51538C14.3113 2.06798 15.1205 1.83008 15.9472 1.83008C16.7738 1.83008 17.583 2.06798 18.2781 2.51538C18.9732 2.96279 19.5248 3.60081 19.8672 4.35323L20.6405 6.11324C20.803 6.48323 21.0796 6.79152 21.4298 6.99304C21.7801 7.19456 22.1856 7.27872 22.5871 7.23324L24.4805 7.03324C25.3062 6.94394 26.1401 7.0968 26.8805 7.47323C27.434 7.75227 27.9202 8.14862 28.305 8.63464C28.6899 9.12067 28.9642 9.68466 29.1088 10.2875C29.2535 10.8903 29.2651 11.5174 29.1428 12.1251C29.0204 12.7329 28.7671 13.3066 28.4005 13.8065L27.2672 15.3666C27.0356 15.6893 26.9098 16.0759 26.9072 16.4732ZM26.2405 20.7265L25.1072 19.1799C24.5471 18.4065 24.2356 17.4812 24.2138 16.5266C24.2184 15.5671 24.5265 14.6337 25.0938 13.8599L26.2138 12.2999C26.399 12.0525 26.5058 11.7553 26.5205 11.4466C26.5459 11.1337 26.4712 10.8209 26.3071 10.5533C26.1553 10.277 25.9227 10.0536 25.6405 9.91321C25.3655 9.77091 25.0554 9.71073 24.7472 9.73987L22.8405 9.95325C21.8776 10.05 20.9084 9.84496 20.0672 9.36658C19.234 8.88023 18.5759 8.14283 18.1872 7.25989L17.4005 5.51322C17.2733 5.22446 17.0648 4.97893 16.8005 4.80656C16.5358 4.64381 16.2312 4.55766 15.9205 4.55766C15.6098 4.55766 15.3052 4.64381 15.0405 4.80656C14.7762 4.97893 14.5677 5.22446 14.4405 5.51322L13.6938 7.24654C13.3028 8.12825 12.6407 8.86226 11.8038 9.34184C10.9669 9.82142 9.99894 10.0216 9.04051 9.91321L7.12051 9.69991C6.81103 9.66869 6.49913 9.72757 6.22235 9.86951C5.94558 10.0114 5.71572 10.2303 5.56049 10.4999C5.40001 10.7743 5.32138 11.0889 5.33384 11.4065C5.35948 11.7192 5.47012 12.0189 5.65383 12.2732L6.77383 13.8199C7.33554 14.5956 7.63796 15.5288 7.63796 16.4865C7.63796 17.4442 7.33554 18.3775 6.77383 19.1532L5.65383 20.7133C5.46827 20.9666 5.35742 21.2668 5.33384 21.5799C5.3232 21.8931 5.40178 22.2029 5.56049 22.4732C5.71818 22.7405 5.94849 22.9576 6.22463 23.0992C6.50077 23.2408 6.81143 23.3011 7.12051 23.2732L9.02716 23.0599C9.99007 22.9631 10.9592 23.1681 11.8005 23.6465C12.6369 24.1328 13.2992 24.8698 13.6938 25.7532L14.4671 27.4999C14.5609 27.7148 14.7004 27.9068 14.8758 28.0624C15.0513 28.2179 15.2586 28.3333 15.4833 28.4006C15.7079 28.4679 15.9445 28.4854 16.1766 28.4519C16.4087 28.4183 16.6307 28.3347 16.8272 28.2066C17.0876 28.0356 17.2953 27.7955 17.4271 27.5132L18.2005 25.7532C18.5949 24.8741 19.2577 24.1425 20.0937 23.6635C20.9296 23.1844 21.8959 22.9824 22.8538 23.0865L24.7605 23.2866C25.0715 23.314 25.3843 23.2588 25.6672 23.1266C25.944 22.9786 26.1747 22.7571 26.3338 22.4865C26.489 22.2152 26.5627 21.9049 26.5462 21.5928C26.5296 21.2807 26.4235 20.9799 26.2405 20.7265ZM13.1175 12.0522C13.9945 11.4661 15.0257 11.1533 16.0805 11.1533C17.495 11.1533 18.8516 11.7152 19.8517 12.7154C20.8519 13.7156 21.4138 15.0722 21.4138 16.4867C21.4138 17.5415 21.101 18.5726 20.515 19.4497C19.929 20.3268 19.096 21.0104 18.1215 21.4141C17.1469 21.8177 16.0746 21.9233 15.04 21.7175C14.0055 21.5117 13.0551 21.0038 12.3093 20.2579C11.5634 19.512 11.0554 18.5617 10.8496 17.5272C10.6438 16.4926 10.7495 15.4203 11.1531 14.4457C11.5568 13.4712 12.2404 12.6382 13.1175 12.0522ZM14.599 18.7039C15.0375 18.997 15.5531 19.1533 16.0805 19.1533C16.7877 19.1533 17.466 18.8724 17.9661 18.3723C18.4662 17.8722 18.7472 17.1939 18.7472 16.4867C18.7472 15.9592 18.5908 15.4437 18.2978 15.0051C18.0047 14.5666 17.5882 14.2249 17.101 14.023C16.6137 13.8212 16.0775 13.7684 15.5602 13.8713C15.043 13.9742 14.5678 14.2281 14.1949 14.6011C13.8219 14.974 13.568 15.4492 13.4651 15.9665C13.3622 16.4838 13.415 17.0199 13.6168 17.5072C13.8186 17.9944 14.1604 18.4109 14.599 18.7039Z" />
</svg>
