<svg width="33" height="33" viewBox="0 0 33 33" xmlns="http://www.w3.org/2000/svg">
<path fill-rule="evenodd" clip-rule="evenodd" d="M24.6663 4.49998C23.1936 4.49998 21.9997 5.69389 21.9997 7.16665C21.9997 7.62972 22.1177 8.06522 22.3253 8.44472C22.3389 8.4653 22.352 8.48638 22.3646 8.50794C22.3771 8.52935 22.3889 8.55095 22.4001 8.57274C22.8706 9.32951 23.7096 9.83331 24.6663 9.83331C26.1391 9.83331 27.333 8.63941 27.333 7.16665C27.333 5.69389 26.1391 4.49998 24.6663 4.49998ZM20.8771 10.9198C21.8436 11.8956 23.1844 12.5 24.6663 12.5C27.6119 12.5 29.9997 10.1122 29.9997 7.16665C29.9997 4.22113 27.6119 1.83331 24.6663 1.83331C21.7208 1.83331 19.333 4.22113 19.333 7.16665C19.333 7.66934 19.4026 8.15578 19.5326 8.61689L12.4556 12.7468C11.4891 11.7711 10.1483 11.1666 8.66634 11.1666C5.72082 11.1666 3.33301 13.5545 3.33301 16.5C3.33301 19.4455 5.72082 21.8333 8.66634 21.8333C10.1486 21.8333 11.4896 21.2287 12.4561 20.2526L19.5342 24.3771C19.4032 24.84 19.333 25.3285 19.333 25.8333C19.333 28.7788 21.7208 31.1666 24.6663 31.1666C27.6119 31.1666 29.9997 28.7788 29.9997 25.8333C29.9997 22.8878 27.6119 20.5 24.6663 20.5C23.1866 20.5 21.8476 21.1026 20.8814 22.0758L13.8003 17.9495C13.9302 17.4886 13.9997 17.0024 13.9997 16.5C13.9997 15.9973 13.9301 15.5108 13.8001 15.0497L20.8771 10.9198ZM10.9326 15.0939C10.9438 15.1157 10.9556 15.1373 10.9681 15.1587C10.9807 15.1802 10.9938 15.2013 11.0073 15.2219C11.215 15.6014 11.333 16.0369 11.333 16.5C11.333 16.963 11.215 17.3986 11.0074 17.778C10.9936 17.7989 10.9804 17.8202 10.9677 17.842C10.9553 17.8632 10.9436 17.8845 10.9326 17.9061C10.4621 18.6628 9.62304 19.1666 8.66634 19.1666C7.19358 19.1666 5.99967 17.9727 5.99967 16.5C5.99967 15.0272 7.19358 13.8333 8.66634 13.8333C9.62304 13.8333 10.4621 14.3371 10.9326 15.0939ZM22.2867 24.6286C22.3196 24.5853 22.3503 24.5395 22.3784 24.4913C22.4053 24.4451 22.4291 24.3979 22.4499 24.35C22.9285 23.6364 23.7425 23.1666 24.6663 23.1666C26.1391 23.1666 27.333 24.3606 27.333 25.8333C27.333 27.3061 26.1391 28.5 24.6663 28.5C23.1936 28.5 21.9997 27.3061 21.9997 25.8333C21.9997 25.3998 22.1031 24.9904 22.2867 24.6286Z" />
</svg>
