<svg width="32" height="33" viewBox="0 0 32 33" xmlns="http://www.w3.org/2000/svg">
<path fill-rule="evenodd" clip-rule="evenodd" d="M15.619 1.95142C15.8719 1.91487 16.1288 1.91487 16.3817 1.95142C16.6732 1.99355 16.9445 2.09602 17.1599 2.17739C17.1796 2.18484 17.1988 2.19211 17.2176 2.19914L24.3666 4.88004C24.4252 4.90199 24.4833 4.92367 24.5408 4.94517C25.3646 5.2527 26.0879 5.52278 26.645 6.01374C27.1324 6.44323 27.5078 6.98496 27.7388 7.59209C28.0029 8.2861 28.0018 9.05825 28.0005 9.93751C28.0004 9.99897 28.0004 10.061 28.0004 10.1235V16.5C28.0004 20.2688 25.9506 23.411 23.7349 25.7192C21.5044 28.043 18.9524 29.6842 17.6029 30.4715C17.5851 30.4819 17.5669 30.4926 17.5483 30.5035C17.302 30.6481 16.9824 30.8358 16.5595 30.9265C16.2136 31.0007 15.7871 31.0007 15.4412 30.9265C15.0183 30.8358 14.6987 30.6481 14.4524 30.5035C14.4338 30.4926 14.4156 30.4819 14.3978 30.4715C13.0483 29.6842 10.4963 28.043 8.26577 25.7192C6.05008 23.411 4.00035 20.2688 4.00035 16.5V10.1235C4.00035 10.061 4.00026 9.99898 4.00017 9.93752C3.9989 9.05826 3.99778 8.2861 4.26187 7.59209C4.4929 6.98496 4.86832 6.44323 5.35567 6.01374C5.91277 5.52278 6.63615 5.2527 7.45988 4.94516C7.51746 4.92367 7.57552 4.90199 7.63406 4.88004L14.7831 2.19914C14.8019 2.19211 14.8211 2.18484 14.8408 2.17739C15.0562 2.09602 15.3275 1.99355 15.619 1.95142ZM15.9963 4.59504C15.9419 4.6129 15.868 4.64031 15.7195 4.69602L8.57039 7.37691C7.47007 7.78953 7.25832 7.8914 7.11879 8.01437C6.95634 8.15753 6.8312 8.3381 6.75419 8.54048C6.68805 8.7143 6.66702 8.94834 6.66702 10.1235V16.5C6.66702 19.2758 8.1866 21.7859 10.1896 23.8726C12.1777 25.9438 14.4937 27.4401 15.7416 28.1682C15.8179 28.2127 15.8729 28.2447 15.9207 28.2717C15.9582 28.2928 15.9832 28.3061 16.0004 28.3148C16.0175 28.3061 16.0425 28.2928 16.08 28.2717C16.1278 28.2447 16.1829 28.2127 16.2591 28.1682C17.5071 27.4401 19.823 25.9438 21.8111 23.8726C23.8141 21.7859 25.3337 19.2758 25.3337 16.5V10.1235C25.3337 8.94834 25.3127 8.7143 25.2465 8.54048C25.1695 8.3381 25.0444 8.15753 24.8819 8.01437C24.7424 7.8914 24.5306 7.78953 23.4303 7.37691L16.2813 4.69601C16.1327 4.64031 16.0588 4.6129 16.0044 4.59504C16.003 4.59458 16.0016 4.59415 16.0004 4.59373C15.9991 4.59415 15.9977 4.59458 15.9963 4.59504ZM21.6098 11.5572C22.1305 12.0779 22.1305 12.9221 21.6098 13.4428L15.6098 19.4428C15.0891 19.9635 14.2449 19.9635 13.7242 19.4428L11.0575 16.7762C10.5368 16.2555 10.5368 15.4112 11.0575 14.8905C11.5782 14.3698 12.4225 14.3698 12.9432 14.8905L14.667 16.6144L19.7242 11.5572C20.2449 11.0365 21.0891 11.0365 21.6098 11.5572Z" />
</svg>
